<svg width="118" height="32" viewBox="0 0 118 32" fill="none" xmlns="http://www.w3.org/2000/svg">
<path d="M16.9846 23.6702L7.65047 29.9569C7.43 30.1177 7.17853 30.2308 6.91201 30.2892C6.59662 30.3537 6.26864 30.3067 5.98401 30.1563L8.89847 31.7022C9.1831 31.8525 9.51108 31.8995 9.82647 31.8351C10.0927 31.7799 10.3443 31.6692 10.5649 31.5102L19.9385 25.1963L16.9846 23.6702Z" fill="url(#paint0_linear_173_3686)"/>
<path d="M21.2751 5.19134C21.1464 4.92522 20.9371 4.70644 20.6769 4.56611L17.7625 3.02026C18.0086 3.15073 18.0874 3.64303 18.0874 3.64303L27.8449 29.2012L30.9883 30.8676L21.2751 5.19134Z" fill="url(#paint1_linear_173_3686)"/>
<path d="M8.27814 29.3219L11.6751 21.2333L9.96676 16.8025L5.37106 27.7539V27.7736C4.96737 28.7582 5.26029 29.5262 5.66891 29.9225C5.76323 30.0143 5.87015 30.0922 5.98645 30.1539L8.90091 31.6997C8.78461 31.6381 8.67769 31.5602 8.58337 31.4683C8.16737 31.0745 7.87691 30.304 8.27814 29.3219Z" fill="#1C00C2"/>
<path d="M17.7649 3.02032C17.4695 2.86995 17.1312 2.82646 16.8074 2.89725C16.4545 2.98088 16.1273 3.1492 15.8541 3.38766C15.5809 3.62613 15.3699 3.92755 15.2394 4.26586V4.26586V4.28309L11.7144 12.672L13.4375 17.1028L18.1784 5.81663C18.3086 5.47809 18.5195 5.17646 18.7928 4.93795C19.066 4.69944 19.3934 4.53125 19.7464 4.44802C20.0703 4.37723 20.4086 4.42072 20.704 4.57109L17.7649 3.02032Z" fill="#1C00C2"/>
<path d="M17.7551 6.76672L16.3397 10.1366L22.3877 26.3064L25.7723 28.1009L17.7551 6.76672Z" fill="url(#paint2_linear_173_3686)"/>
<path d="M3.14091 26.5847L7.71445 15.6948L3.65045 16.8788L0.204294 25.0561C-0.199398 26.0407 0.0910629 26.8111 0.50214 27.2074C0.596764 27.2971 0.702683 27.3741 0.817216 27.4364L3.27875 28.7434C3.3846 28.7976 3.38952 28.7237 3.32798 28.6622C2.98091 28.2314 2.75445 27.493 3.14091 26.5847Z" fill="url(#paint3_linear_173_3686)"/>
<path d="M15.2812 1.70342L12.6203 0.292957C12.3252 0.141587 11.9865 0.0980533 11.6628 0.16988C11.3091 0.251525 10.9809 0.418812 10.7071 0.657028C10.4332 0.895245 10.2221 1.19709 10.0923 1.53603V1.53603L5.30707 12.9182L9.36122 11.7613L12.9994 3.10157C13.1282 2.75946 13.3397 2.45455 13.615 2.21403C13.8904 1.97351 14.2209 1.80486 14.5772 1.72311C14.8022 1.67008 15.0365 1.67008 15.2615 1.72311C15.3132 1.74527 15.3255 1.72311 15.2812 1.70342Z" fill="url(#paint4_linear_173_3686)"/>
<path d="M40 26.4852V9.28552H43.1532V26.4852H40Z" fill="#404040"/>
<path d="M49.1002 19.7633L51.9684 19.3363C52.6334 19.2385 52.8466 18.9067 52.8466 18.5028C52.8466 17.6719 52.2072 16.9825 50.8797 16.9825C49.5033 16.9825 48.7458 17.8623 48.6508 18.8835L45.852 18.2893C46.042 16.4602 47.7239 14.4305 50.854 14.4305C54.5541 14.4305 55.9305 16.522 55.9305 18.8732V24.6228C55.9333 25.2428 55.9805 25.8617 56.0717 26.475H53.1829C53.103 26.012 53.0635 25.5428 53.0648 25.073C52.4717 25.9991 51.3573 26.8068 49.6266 26.8068C47.1384 26.8068 45.6208 25.1218 45.6208 23.2928C45.6208 21.2116 47.1615 20.0463 49.1002 19.7633ZM52.8466 21.757V21.2425L50.2146 21.6464C49.4083 21.7647 48.7689 22.2175 48.7689 23.1204C48.7689 23.8099 49.2671 24.4736 50.2865 24.4736C51.6192 24.4658 52.8517 23.8253 52.8517 21.757H52.8466Z" fill="#404040"/>
<path d="M69.5936 24.3706C69.5936 25.1424 69.6398 26.0093 69.6886 26.4852H66.6766C66.5987 26.0384 66.5591 25.5857 66.5585 25.1321C66.0449 26.0582 64.8509 26.7708 63.2846 26.7708C59.9644 26.7708 57.5944 24.1571 57.5944 20.6174C57.5944 17.1959 59.9054 14.5128 63.1896 14.5128C65.2053 14.5128 66.1554 15.3437 66.4866 15.9611V9.28552H69.5936V24.3706ZM63.6646 23.9436C65.2772 23.9436 66.5354 22.7088 66.5354 20.5994C66.5354 18.4899 65.2772 17.3323 63.6646 17.3323C62.0521 17.3323 60.7707 18.5182 60.7707 20.6096C60.7707 22.7011 62.0058 23.9436 63.6646 23.9436V23.9436Z" fill="#404040"/>
<path d="M73.9793 9C74.3634 8.99952 74.739 9.11289 75.0589 9.32584C75.3788 9.53879 75.6287 9.84179 75.7771 10.1967C75.9254 10.5516 75.9657 10.9426 75.8927 11.3204C75.8198 11.6981 75.6369 12.0458 75.3671 12.3197C75.0973 12.5936 74.7526 12.7813 74.3765 12.8594C74.0004 12.9374 73.6097 12.9022 73.2535 12.7583C72.8974 12.6143 72.5917 12.368 72.3749 12.0503C72.1582 11.7327 72.0401 11.3579 72.0355 10.9731C72.0325 10.7153 72.0805 10.4595 72.1768 10.2204C72.2731 9.98129 72.4157 9.7637 72.5965 9.5802C72.7772 9.39671 72.9925 9.25095 73.2299 9.15136C73.4673 9.05177 73.722 9.00032 73.9793 9ZM72.4156 26.493V14.7984H75.5688V26.4853L72.4156 26.493Z" fill="#404040"/>
<path d="M81.1178 19.7633L83.9885 19.3363C84.651 19.2385 84.8642 18.9067 84.8642 18.5028C84.8642 17.6719 84.2248 16.9825 82.8972 16.9825C81.5209 16.9825 80.7634 17.8623 80.6684 18.8835L77.8593 18.2893C78.0493 16.4602 79.7337 14.4305 82.8639 14.4305C86.5615 14.4305 87.9378 16.522 87.9378 18.8732V24.6228C87.9407 25.2428 87.9879 25.8617 88.079 26.475H85.1954C85.1154 26.012 85.0759 25.5428 85.0773 25.073C84.4867 25.9991 83.3723 26.8068 81.639 26.8068C79.1509 26.8068 77.6333 25.1218 77.6333 23.2928C77.6333 21.2116 79.174 20.0463 81.1178 19.7633ZM84.8642 21.757V21.2425L82.2245 21.6387C81.4182 21.757 80.7788 22.2098 80.7788 23.1127C80.7788 23.8021 81.277 24.4658 82.2964 24.4658C83.6316 24.4658 84.8642 23.8253 84.8642 21.757Z" fill="#404040"/>
<path d="M91.0062 31V14.7933H94.0644V16.2184C94.578 15.3155 95.8927 14.5309 97.6465 14.5309C101.062 14.5309 103.039 17.1445 103.039 20.6123C103.039 24.152 100.833 26.7657 97.5386 26.7657C95.9261 26.7657 94.7398 26.1225 94.1697 25.3405V31H91.0062ZM97.0302 17.3658C95.4177 17.3658 94.1132 18.5774 94.1132 20.6431C94.1132 22.7088 95.4177 23.9462 97.0302 23.9462C98.6428 23.9462 99.9215 22.7346 99.9215 20.6431C99.9215 18.5517 98.6428 17.3632 97.0302 17.3632V17.3658Z" fill="#404040"/>
<path d="M105.401 31V14.7933H108.459V16.2184C108.973 15.3155 110.285 14.5309 112.039 14.5309C115.454 14.5309 117.431 17.1445 117.431 20.6123C117.431 24.152 115.225 26.7657 111.928 26.7657C110.316 26.7657 109.132 26.1225 108.562 25.3405V31H105.401ZM111.423 17.3658C109.81 17.3658 108.508 18.5774 108.508 20.6431C108.508 22.7088 109.81 23.9462 111.423 23.9462C113.035 23.9462 114.322 22.7346 114.322 20.6406C114.322 18.5465 113.038 17.3632 111.423 17.3632V17.3658Z" fill="#404040"/>
<defs>
<linearGradient id="paint0_linear_173_3686" x1="5.97909" y1="27.7662" x2="19.9409" y2="27.7662" gradientUnits="userSpaceOnUse">
<stop stop-color="#128CFF"/>
<stop offset="1" stop-color="#128CFF"/>
</linearGradient>
<linearGradient id="paint1_linear_173_3686" x1="17.7649" y1="16.9452" x2="30.9908" y2="16.9452" gradientUnits="userSpaceOnUse">
<stop stop-color="#128CFF"/>
<stop offset="1" stop-color="#128CFF"/>
</linearGradient>
<linearGradient id="paint2_linear_173_3686" x1="16.3397" y1="17.4326" x2="25.7723" y2="17.4326" gradientUnits="userSpaceOnUse">
<stop stop-color="#00DEBB"/>
<stop offset="1" stop-color="#00DEBB"/>
</linearGradient>
<linearGradient id="paint3_linear_173_3686" x1="0.0246015" y1="22.2179" x2="7.71445" y2="22.2179" gradientUnits="userSpaceOnUse">
<stop stop-color="#00DEBB"/>
<stop offset="1" stop-color="#00DEBB"/>
</linearGradient>
<linearGradient id="paint4_linear_173_3686" x1="5.30707" y1="6.52803" x2="15.3083" y2="6.52803" gradientUnits="userSpaceOnUse">
<stop stop-color="#00DEBB"/>
<stop offset="1" stop-color="#00DEBB"/>
</linearGradient>
</defs>
</svg>
